<svg
      xmlns="http://www.w3.org/2000/svg"
      width='36'
      height='36'
      viewBox="0 0 510 510"
    >
      <path
        fillRule="evenodd"
        d="M-1-256h2A32983.605 32983.605 0 0058-59 10897.49 10897.49 0 00256-1v2A14474.28 14474.28 0 0059 58 10897.49 10897.49 0 001 256h-2A14474.28 14474.28 0 00-58 59 7281.526 7281.526 0 00-256 1v-2A32983.605 32983.605 0 00-59-58 10898.195 10898.195 0 00-1-256zm0 181c33.349 1.743 56.849 17.743 70.5 48C80.527 7.407 72.36 36.241 45 59.5c-30 20.667-60 20.667-90 0C-76.327 31.525-82.494-1.308-63.5-39-48.57-61.216-27.737-73.216-1-75zm-14 60h30v30h-30v-30z"
        opacity="0.97"
        transform="translate(255.5 255.5)"
      ></path>
      <path
        fill='#000000'
        fillRule="evenodd"
        d="M84-96h5a489.118 489.118 0 017 30C35.921-49.74-10.246-15.074-42.5 38-53.368 56.105-61.202 75.438-66 96a489.118 489.118 0 01-30-7C-79.076 23.639-42.41-27.527 14-64.5 36.039-78.022 59.372-88.522 84-96z"
        opacity="0.96"
        transform="translate(103.5 103.5)"
      ></path>
      <path
        fill='#000000'
        fillRule="evenodd"
        d="M-89-96C-16.498-76.833 38.002-34.5 74.5 31A255.166 255.166 0 0196 86.5c-.255 1.326-.922 2.326-2 3A425.146 425.146 0 0166 96C49.741 35.921 15.074-10.246-38-42.5-56.105-53.368-75.438-61.202-96-66a489.118 489.118 0 017-30z"
        opacity="0.96"
        transform="translate(407.5 103.5)"
      ></path>
      <path
        fill='#000000'
        fillRule="evenodd"
        d="M-41-41A2349.199 2349.199 0 0141 0a570.802 570.802 0 00-9 32 570.802 570.802 0 00-32 9 2349.199 2349.199 0 01-41-82z"
        opacity="0.95"
        transform="translate(142.5 142.5)"
      ></path>
      <path
        fillRule="evenodd"
        fill='#000000'
        d="M39-40.99c.876-.131 1.543.202 2 1a4603.362 4603.362 0 01-41 81 434.85 434.85 0 00-32-9 570.802 570.802 0 00-9-32c26.728-13.696 53.394-27.363 80-41z"
        opacity="0.95"
        transform="translate(368.5 142.48)"
      ></path>
      <path
        fillRule="evenodd"
        d="M-10.04-44.67c23.293-3.104 40.459 5.562 51.5 26 8.029 21.045 3.862 39.212-12.5 54.5-16.511 11.094-33.844 12.427-52 4-22.586-16.17-28.086-37.003-16.5-62.5 7.172-11.019 17.005-18.352 29.5-22zm-5 30v30h30v-30h-30z"
        opacity="0.97"
        transform="translate(255.54 255.18)"
      ></path>
      <path
        fill='#000000'
        fillRule="evenodd"
        d="M-70-96h4C-46.166-25.333-2.832 25.167 64 55.5A199.675 199.675 0 0096 66a488.98 488.98 0 01-7 30C19.359 77.854-33.808 37.854-70.5-24-82.354-44.371-90.854-66.037-96-89a369.38 369.38 0 0026-7z"
        opacity="0.96"
        transform="translate(103.5 407.5)"
      ></path>
      <path
        fill='#000000'
        fillRule="evenodd"
        d="M66-96a425.146 425.146 0 0128 6.5c1.078.674 1.745 1.674 2 3C72.275-4.72 21.275 52.947-57 86.5A160.264 160.264 0 01-89 96a488.98 488.98 0 01-7-30C-25.333 46.166 25.167 2.832 55.5-64A199.675 199.675 0 0066-96z"
        opacity="0.95"
        transform="translate(407.5 407.5)"
      ></path>
      <path
        fill='#000000'
        fillRule="evenodd"
        d="M-1-41a1205.124 1205.124 0 0033 9 570.802 570.802 0 009 32 4603.362 4603.362 0 01-81 41l-1-1A4557.284 4557.284 0 00-1-41z"
        opacity="0.95"
        transform="translate(142.5 368.5)"
      ></path>
      <path
        fill='#000000'
        fillRule="evenodd"
        d="M-1-40.99c.876-.131 1.543.202 2 1l40 80-1 1a4603.362 4603.362 0 01-81-41 570.802 570.802 0 009-32 278.15 278.15 0 0031-9z"
        opacity="0.95"
        transform="translate(368.5 368.48)"
      ></path>
    </svg>