<svg xmlns="http://www.w3.org/2000/svg" width="131" height="26" viewBox="0 0 131 26">
  <g fill="#000" fill-rule="evenodd">
    <path d="M8.1 21.24c2.95 0 5.23-.82 6.51-2.77.63-1 .93-2.31.92-3.96v-.79l-5.82.01v.57c-.02 1.52-.44 2.28-1.53 2.29-1.2 0-1.57-.74-1.57-2.7v-1.65c0-1.98.36-2.74 1.55-2.74s1.54.65 1.54 2.17v.5l5.78-.01v-.96c-.01-4.35-2.72-6.28-7.3-6.27-2.92 0-5.13.92-6.38 3a7.97 7.97 0 0 0-.9 3.97v2.57c.01 4.83 2.4 6.78 7.2 6.77Zm15.72-.03c2.84 0 5.07-1.01 6.33-3.1.65-1.05.95-2.4.94-4.03v-2.04c-.01-3.29-1.37-5.35-3.56-6.39a8.93 8.93 0 0 0-3.73-.75c-2.9 0-5.14 1.01-6.35 3.14a8.2 8.2 0 0 0-.9 4.03v2.04c.02 4.92 2.68 7.1 7.27 7.1Zm.01-4.57c-1.19 0-1.56-.89-1.57-2.84v-1.48c0-1.98.36-2.85 1.55-2.86 1.2 0 1.54.8 1.55 2.85v1.48c0 2.04-.34 2.85-1.53 2.85Zm14-.1h1.6c4.85 0 6.97-2.14 6.96-5.73-.01-3.5-2.16-5.63-7-5.62l-6.95.02.04 15.65h5.36l-.01-4.31Zm-.02-7.1h1.45c1 0 1.63.38 1.63 1.4 0 1-.65 1.4-1.63 1.4h-1.44v-2.8Zm17.52 9.4.61 1.98 5.5-.02L55.8 5.16l-5.5.01-5.48 15.67 5.47-.01.58-1.98 4.45-.01Zm-2.28-7.41 1.03 3.39h-2.02l1-3.4Zm8.67 9.37 10.48-.02-.01-4.72-2.54.01-.02-6.22h2.54V5.12l-10.49.02.01 4.72h2.54l.02 6.21H61.7v4.72ZM78.7 13.3l4.91 7.47 4.96-.01-.03-15.66-5.06.01.02 7.33-4.77-7.32-5.1.01.04 15.66h5.05l-.02-7.5Zm17.82 7.77c4.66 0 6.96-1.93 6.95-5.39 0-1.71-.7-2.82-1.78-3.52a9.81 9.81 0 0 0-3.52-1.36c-1.58-.36-2.89-.56-2.89-1.25 0-.5.3-.85 1.19-.85.93 0 1.37.39 1.37 1.23v.05l5.39-.01v-.07c-.01-3.52-2.42-5.21-6.61-5.2-4.52 0-6.89 2-6.88 5.12 0 1.7.68 2.76 1.7 3.43 1.03.7 2.3 1.04 3.46 1.3 1.1.24 2.05.43 2.6.75.29.18.43.4.43.66 0 .52-.33.82-1.23.83-1.1 0-1.5-.48-1.5-1.3v-.16l-5.64.01v.05c.01 2.45.76 4.13 2.79 5.04 1.02.43 2.4.64 4.17.64ZM129.59 5.06c-1.82-3.3-5.13-4.9-10.12-4.94h-.03c-5 .07-8.29 1.7-10.08 5.02a13.18 13.18 0 0 0-1.35 6.38l.03 2.96c.05 3.75 1.1 6.58 3.13 8.43 1.92 1.75 4.73 2.63 8.35 2.62h.07c3.62-.02 6.42-.91 8.33-2.68 2.01-1.86 3.04-4.7 3.06-8.45l.01-2.96c.01-2.5-.46-4.64-1.4-6.38Zm-1.07 9.33c-.02 3.12-.8 5.41-2.33 6.83-1.46 1.35-3.64 2-6.64 2.01-3 .01-5.19-.63-6.66-1.96-1.54-1.4-2.35-3.7-2.38-6.81l-.04-2.97c-.03-2.12.34-3.92 1.09-5.33 1.35-2.5 3.86-3.69 7.9-3.74 4.04.03 6.56 1.2 7.94 3.69.76 1.4 1.14 3.2 1.13 5.32l-.01 2.96Z"/>
    <path d="m112 14.35-.04-2.69c-.02-1.71.3-3.1.88-4.18 1.26-2.18 3.53-3.17 6.52-3.2 4.72-.06 7.53 1.94 7.59 6.5l.01 1-5.94.07v-.52c-.03-1.6-.4-2.28-1.62-2.27-1.22.02-1.6.82-1.56 2.9l.02 1.73c.03 2.05.42 2.82 1.64 2.8 1.13 0 1.55-.81 1.55-2.4v-.6l5.98-.07.01.82a7.78 7.78 0 0 1-.9 4.16c-1.29 2.07-3.63 2.94-6.67 2.97-4.93.06-7.4-1.96-7.47-7.02"/>
  </g>
</svg>
