<svg xmlns="http://www.w3.org/2000/svg" height="59.96" width="170.36"><defs><style>.cls-1{fill:#00707f;}.cls-2{fill:#5fa4b0;}.cls-3{fill:#7db928;}.cls-4{fill:#b9cd76;}</style></defs><title>uLIEGE_Gembloux_AgroBioTech_Logo</title><g id="Calque_2" data-name="Calque 2"><g id="faculté"><polygon class="cls-1" points="9.1 18.71 0 23.97 0 13.46 9.1 18.71"/><polygon class="cls-2" points="0 34.48 9.1 29.22 9.1 39.73 0 34.48"/><polygon class="cls-2" points="0 13.46 9.1 8.2 9.1 18.71 0 13.46"/><polygon class="cls-1" points="18.2 13.46 9.1 8.2 9.1 18.71 18.2 13.46"/><polygon class="cls-2" points="9.1 29.22 18.2 34.48 18.2 23.97 9.1 29.22"/><polygon class="cls-1" points="18.2 34.48 9.1 29.22 9.1 39.73 18.2 34.48"/><polygon class="cls-3" points="18.2 23.97 9.1 18.71 9.1 29.22 18.2 23.97"/><polygon class="cls-3" points="9.1 29.22 0 34.48 0 23.97 9.1 29.22"/><polygon class="cls-3" points="9.1 8.2 0 13.46 0 2.95 9.1 8.2"/><polygon class="cls-3" points="27.3 39.73 18.2 34.48 18.2 44.98 27.3 39.73"/><polygon class="cls-3" points="36.4 13.46 27.3 18.71 27.3 8.2 36.4 13.46"/><polygon class="cls-3" points="36.4 34.48 27.3 39.73 27.3 29.22 36.4 34.48"/><polygon class="cls-4" points="0 23.97 9.1 18.71 9.1 29.22 0 23.97"/><polygon class="cls-4" points="9.1 18.71 18.2 23.97 18.2 13.46 9.1 18.71"/><polygon class="cls-4" points="9.1 39.73 18.2 44.98 18.2 34.48 9.1 39.73"/><polygon class="cls-4" points="18.2 34.48 27.3 39.73 27.3 29.22 18.2 34.48"/><polygon class="cls-4" points="27.3 8.2 36.4 2.95 36.4 13.46 27.3 8.2"/><polygon class="cls-4" points="27.3 29.22 36.4 23.97 36.4 34.48 27.3 29.22"/><path class="cls-3" d="M52.31,20.41a6,6,0,0,1,4.3,1.8L54.9,24.14a3.38,3.38,0,0,0-2.54-1c-2.12,0-3.65,1.67-3.65,4.45S50,32,52.61,32a2.47,2.47,0,0,0,1.46-.42V29.24H51.78V26.7h5.07v6.36a7.37,7.37,0,0,1-4.64,1.67c-3.73,0-6.7-2.44-6.7-7.08S48.56,20.41,52.31,20.41Z"/><path class="cls-3" d="M63.53,23.71c3,0,4.47,2.19,4.47,5.05a6.39,6.39,0,0,1-.13,1.31H61.58a2.54,2.54,0,0,0,2.73,2.29,4.33,4.33,0,0,0,2.27-.7l1,1.88a6.86,6.86,0,0,1-3.72,1.19,5.12,5.12,0,0,1-5.32-5.51A5.17,5.17,0,0,1,63.53,23.71Zm1.82,4.43c0-1.21-.51-2.05-1.76-2.05-1,0-1.82.65-2,2.05Z"/><path class="cls-3" d="M69.8,24h2.54l.21,1.35h.09a4.43,4.43,0,0,1,3.17-1.61,2.92,2.92,0,0,1,2.91,1.76A4.6,4.6,0,0,1,82,23.71c2.27,0,3.28,1.61,3.28,4.24v6.53H82.19V28.35c0-1.52-.4-2-1.29-2a2.78,2.78,0,0,0-1.8,1v7.1H76V28.35c0-1.52-.4-2-1.29-2a2.74,2.74,0,0,0-1.78,1v7.1H69.8Z"/><path class="cls-3" d="M87.61,19.63h3.12v3.64l-.09,1.61a4.29,4.29,0,0,1,2.78-1.17c2.54,0,4.13,2.1,4.13,5.32,0,3.62-2.16,5.7-4.43,5.7a3.82,3.82,0,0,1-2.73-1.36H90.3l-.25,1.11H87.61ZM92.4,32.19c1.08,0,1.95-.93,1.95-3.1,0-1.88-.57-2.83-1.82-2.83a2.37,2.37,0,0,0-1.8.95v4.3A2.4,2.4,0,0,0,92.4,32.19Z"/><path class="cls-3" d="M99.39,19.63h3.11V31.34c0,.66.3.87.56.87a1.4,1.4,0,0,0,.38,0l.38,2.31a4.25,4.25,0,0,1-1.57.25c-2.14,0-2.86-1.4-2.86-3.52Z"/><path class="cls-3" d="M109.58,23.71a5.15,5.15,0,0,1,5.1,5.51,5.13,5.13,0,1,1-10.23,0A5.16,5.16,0,0,1,109.58,23.71Zm0,8.5c1.27,0,1.92-1.17,1.92-3s-.65-3-1.92-3-1.93,1.17-1.93,3S108.28,32.21,109.58,32.21Z"/><path class="cls-3" d="M116.35,24h3.12v6.12c0,1.5.42,2,1.31,2a2.15,2.15,0,0,0,1.86-1.16V24h3.12V34.48h-2.54L123,33h-.08a4.07,4.07,0,0,1-3.31,1.72c-2.28,0-3.26-1.61-3.26-4.24Z"/><path class="cls-3" d="M130.23,29l-3-5h3.35l.93,1.69c.27.6.59,1.21.89,1.8h.08c.21-.59.49-1.2.72-1.8l.72-1.69h3.22l-3.05,5.4,3.24,5.11H134l-1-1.74c-.34-.6-.66-1.23-1-1.82h-.08c-.26.59-.55,1.2-.81,1.82l-.82,1.74H127Z"/><path class="cls-3" d="M53.77,52.21H49.54l-.85,3.28H45.51l4.34-13.81h3.73l4.35,13.81H54.62Zm-.63-2.44L52.8,48.5c-.38-1.37-.74-3-1.12-4.44h-.09c-.32,1.46-.7,3.07-1.08,4.44l-.34,1.27Z"/><path class="cls-3" d="M59.86,55.18v-.09a2,2,0,0,1-1-1.78,2.55,2.55,0,0,1,1.19-2v-.08a3.36,3.36,0,0,1-1.42-2.74c0-2.52,2.07-3.79,4.34-3.79a4.89,4.89,0,0,1,1.63.26h3.83v2.26H66.79a2.83,2.83,0,0,1,.34,1.38c0,2.42-1.82,3.54-4.13,3.54A4.42,4.42,0,0,1,61.73,52a.87.87,0,0,0-.38.78c0,.53.42.78,1.59.78h1.69c2.59,0,4,.79,4,2.67,0,2.19-2.26,3.77-5.86,3.77-2.46,0-4.41-.8-4.41-2.67A2.47,2.47,0,0,1,59.86,55.18ZM63.25,58c1.4,0,2.42-.58,2.42-1.3s-.57-.82-1.61-.82H63a6.25,6.25,0,0,1-1.48-.13,1.37,1.37,0,0,0-.58,1C60.92,57.59,61.86,58,63.25,58Zm1.19-9.5c0-1.1-.61-1.69-1.44-1.69s-1.44.57-1.44,1.69.61,1.76,1.44,1.76S64.44,49.69,64.44,48.52Z"/><path class="cls-3" d="M69.89,45h2.54l.22,1.84h.08a3.52,3.52,0,0,1,3-2.1,3.17,3.17,0,0,1,1.25.21l-.51,2.7a3.78,3.78,0,0,0-1.14-.17A2.58,2.58,0,0,0,73,49.39v6.1H69.89Z"/><path class="cls-3" d="M82.41,44.73a5.15,5.15,0,0,1,5.11,5.51,5.13,5.13,0,1,1-10.23,0A5.15,5.15,0,0,1,82.41,44.73Zm0,8.5c1.27,0,1.93-1.17,1.93-3s-.66-3-1.93-3-1.93,1.17-1.93,3S81.12,53.23,82.41,53.23Z"/><path class="cls-3" d="M89.4,49h5.21v2.21H89.4Z"/><path class="cls-3" d="M97.1,41.68h4.72c2.88,0,5.11.79,5.11,3.43a3,3,0,0,1-2.33,3v.09c2,.36,3,1.39,3,3.24,0,2.81-2.37,4.06-5.38,4.06H97.1Zm4.57,5.57c1.53,0,2.21-.65,2.21-1.69s-.72-1.46-2.17-1.46h-1.48v3.15Zm.3,5.83c1.69,0,2.58-.64,2.58-1.89s-.87-1.73-2.58-1.73h-1.74v3.62Z"/><path class="cls-3" d="M109.17,41.81a1.81,1.81,0,1,1,1.8,1.63A1.65,1.65,0,0,1,109.17,41.81Zm.25,3.18h3.11v10.5h-3.11Z"/><path class="cls-3" d="M119.37,44.73a5.15,5.15,0,0,1,5.1,5.51,5.13,5.13,0,1,1-10.23,0A5.16,5.16,0,0,1,119.37,44.73Zm0,8.5c1.27,0,1.92-1.17,1.92-3s-.65-3-1.92-3-1.93,1.17-1.93,3S118.07,53.23,119.37,53.23Z"/><path class="cls-3" d="M134,44.31h-3.81V41.68h10.72v2.63h-3.8V55.49H134Z"/><path class="cls-3" d="M145.19,44.73c3,0,4.47,2.19,4.47,5a5.78,5.78,0,0,1-.13,1.32h-6.29A2.55,2.55,0,0,0,146,53.38a4.27,4.27,0,0,0,2.26-.7l1,1.88a6.89,6.89,0,0,1-3.73,1.19,5.12,5.12,0,0,1-5.31-5.51C140.24,46.83,142.67,44.73,145.19,44.73ZM147,49.16c0-1.21-.5-2-1.75-2-1,0-1.83.65-2,2Z"/><path class="cls-3" d="M156.35,44.73a4.25,4.25,0,0,1,3.08,1.21L158,47.87a2.24,2.24,0,0,0-1.47-.62c-1.5,0-2.45,1.17-2.45,3s1,3,2.35,3a3,3,0,0,0,1.88-.77l1.25,2a5.48,5.48,0,0,1-3.49,1.31c-2.92,0-5.19-2-5.19-5.51A5.28,5.28,0,0,1,156.35,44.73Z"/><path class="cls-3" d="M160.89,40.64H164v3.65l-.14,1.88a4.81,4.81,0,0,1,3.24-1.44c2.28,0,3.26,1.61,3.26,4.24v6.52h-3.12V49.37c0-1.52-.4-2-1.29-2a2.66,2.66,0,0,0-1.95,1v7.09h-3.11Z"/><path class="cls-1" d="M86.52,6.07h1.73v4.42c0,1.22.34,1.67,1.14,1.67s1.09-.3,1.64-1V6.07h1.73v7.4H91.35l-.14-1.09h0a3,3,0,0,1-2.38,1.27c-1.58,0-2.27-1.07-2.27-2.94Z"/><path class="cls-1" d="M94.77,6.07H96.2l.12,1h.06A3.41,3.41,0,0,1,98.8,5.89c1.58,0,2.28,1.07,2.28,2.94v4.64H99.35V9.06c0-1.22-.35-1.68-1.16-1.68a2.36,2.36,0,0,0-1.69.92v5.17H94.77Z"/><path class="cls-1" d="M103.3,6.07H105v7.4H103.3Z"/><path class="cls-1" d="M106.33,6.07h1.76l1.18,3.84c.19.73.42,1.48.62,2.23H110c.21-.75.42-1.5.63-2.23l1.17-3.84h1.67l-2.51,7.4h-2Z"/><path class="cls-1" d="M117.35,5.89c2,0,3.06,1.45,3.06,3.51a4.11,4.11,0,0,1-.07.81h-4.7a2.12,2.12,0,0,0,2.18,2.1,3.15,3.15,0,0,0,1.72-.54l.58,1.08a4.6,4.6,0,0,1-2.53.8A3.57,3.57,0,0,1,114,9.78,3.6,3.6,0,0,1,117.35,5.89Zm1.56,3.23c0-1.18-.5-1.89-1.51-1.89s-1.63.65-1.78,1.89Z"/><path class="cls-1" d="M122.22,6.07h1.43l.12,1.31h.06a2.52,2.52,0,0,1,2.09-1.49,2,2,0,0,1,.85.15l-.31,1.51a2.24,2.24,0,0,0-.76-.12c-.59,0-1.3.41-1.75,1.52v4.52h-1.73Z"/><path class="cls-1" d="M127.83,11.51a3.33,3.33,0,0,0,2,.83c.8,0,1.18-.38,1.18-.89s-.8-.89-1.58-1.19c-1-.36-2.08-.92-2.08-2.15s1-2.22,2.69-2.22a4,4,0,0,1,2.46.89l-.8,1.06a2.74,2.74,0,0,0-1.63-.64c-.74,0-1.08.35-1.08.82s.74.81,1.53,1.1c1,.37,2.13.85,2.13,2.24s-1,2.29-2.88,2.29a4.66,4.66,0,0,1-2.8-1Z"/><path class="cls-1" d="M134.41,6.07h1.74v7.4h-1.74Z"/><path class="cls-1" d="M138.81,7.44h-1.05V6.15l1.14-.08.21-2h1.45v2h1.88V7.44h-1.88V11c0,.87.33,1.29,1,1.29a2.1,2.1,0,0,0,.76-.16l.31,1.28a4.92,4.92,0,0,1-1.51.27c-1.72,0-2.35-1.09-2.35-2.68Z"/><path class="cls-1" d="M147,5.89c2,0,3,1.45,3,3.51a4.11,4.11,0,0,1-.07.81h-4.7a2.12,2.12,0,0,0,2.18,2.1,3.12,3.12,0,0,0,1.72-.54l.59,1.08a4.66,4.66,0,0,1-2.53.8,3.57,3.57,0,0,1-3.65-3.87A3.61,3.61,0,0,1,147,5.89Zm1.55,3.23c0-1.18-.5-1.89-1.51-1.89s-1.62.65-1.77,1.89Z"/><path class="cls-1" d="M103.11,4a1.07,1.07,0,1,1,1.07,1A1,1,0,0,1,103.11,4Z"/><path class="cls-1" d="M134.22,4a1.07,1.07,0,1,1,1.07,1A1,1,0,0,1,134.22,4Z"/><polygon class="cls-1" points="147.14 5.2 145.86 5.2 147.2 3 148.93 3 147.14 5.2"/><path class="cls-1" d="M45.51,3h2.35v8.44H52v2H45.51Z"/><path class="cls-1" d="M53.53,3h2.35V13.45H53.53Z"/><polygon class="cls-1" points="57.73 3.03 64.25 3.03 64.25 5.01 60.08 5.01 60.08 7.11 63.63 7.11 63.63 9.07 60.08 9.07 60.08 11.47 64.41 11.47 64.41 13.46 57.73 13.46 57.73 3.03"/><polygon class="cls-1" points="58.51 0 61 0 62.3 1.92 60.43 1.92 58.51 0"/><path class="cls-1" d="M65.21,8.3A6.22,6.22,0,0,1,65.62,6a5.24,5.24,0,0,1,1.1-1.72A4.76,4.76,0,0,1,68.36,3.2a5.46,5.46,0,0,1,2-.37,4.11,4.11,0,0,1,1.91.42,5.08,5.08,0,0,1,1.32.94l-1.3,1.46a3,3,0,0,0-.81-.58,2.44,2.44,0,0,0-1.09-.2,2.51,2.51,0,0,0-1.11.23,2.34,2.34,0,0,0-.87.66,2.91,2.91,0,0,0-.57,1.06,4.34,4.34,0,0,0-.2,1.4,3.83,3.83,0,0,0,.73,2.51,2.66,2.66,0,0,0,2.19.89,2.59,2.59,0,0,0,.63-.08,1.4,1.4,0,0,0,.49-.24V9.5H70V7.58h3.8v4.8a4.54,4.54,0,0,1-1.47.9,5.45,5.45,0,0,1-2,.37,5.57,5.57,0,0,1-2-.35,4.58,4.58,0,0,1-1.61-1,5,5,0,0,1-1.08-1.67A6.37,6.37,0,0,1,65.21,8.3Z"/><path class="cls-1" d="M75.29,3h6.53V5H77.64V7.1h3.55v2H77.64v2.4H82v2H75.29Z"/></g></g></svg>